<?xml version="1.0" standalone="no"?>
<!DOCTYPE svg PUBLIC "-//W3C//DTD SVG 20010904//EN"
 "http://www.w3.org/TR/2001/REC-SVG-20010904/DTD/svg10.dtd">
<svg version="1.0" xmlns="http://www.w3.org/2000/svg"
 width="512.000000pt" height="512.000000pt" viewBox="0 0 512.000000 512.000000"
 preserveAspectRatio="xMidYMid meet">

<g transform="translate(0.000000,512.000000) scale(0.100000,-0.100000)"
fill="#000000" stroke="none">
<path d="M2387 5105 c-206 -39 -387 -134 -533 -280 -303 -303 -379 -767 -188
-1148 55 -109 111 -186 206 -278 l88 -86 -48 -18 c-81 -31 -223 -105 -311
-163 -84 -55 -234 -176 -279 -225 l-23 -24 -157 59 c-172 65 -213 70 -270 30
-59 -43 -62 -61 -62 -375 l0 -285 -56 -18 c-197 -62 -344 -264 -344 -474 0
-210 147 -412 344 -474 l56 -18 0 -307 c0 -280 2 -309 19 -341 10 -19 32 -43
48 -52 52 -31 1655 -628 1684 -628 28 0 1595 582 1670 621 25 12 46 34 59 59
19 37 20 58 20 344 l0 304 56 18 c241 75 391 346 329 589 -44 172 -162 302
-324 356 l-61 21 0 284 c0 266 -1 287 -20 324 -23 44 -80 80 -128 80 -17 0
-100 -26 -185 -59 l-156 -58 -23 24 c-127 136 -403 317 -590 388 l-47 17 88
87 c164 162 258 337 296 556 89 510 -241 1010 -750 1136 -107 27 -304 34 -408
14z m306 -299 c212 -41 395 -182 491 -378 101 -207 101 -409 -1 -618 -38 -79
-60 -109 -132 -181 -72 -72 -102 -94 -181 -132 -209 -102 -411 -102 -620 0
-79 38 -109 60 -181 132 -71 71 -94 102 -133 181 -101 206 -101 414 0 620 39
79 62 110 133 181 71 71 102 94 181 133 146 72 287 91 443 62z m159 -1716
c131 -27 252 -71 379 -137 97 -50 260 -161 267 -182 1 -4 -209 -88 -468 -185
l-470 -176 -467 175 c-256 96 -469 178 -472 180 -13 13 152 127 282 195 145
76 304 126 477 150 104 14 361 4 472 -20z m-1079 -705 l637 -239 0 -889 c0
-707 -3 -888 -12 -885 -7 3 -300 112 -650 243 l-638 239 0 236 0 237 41 12
c55 17 122 85 142 146 25 72 25 598 0 670 -20 61 -87 129 -142 146 l-41 12 0
160 c0 123 3 158 13 155 6 -3 299 -112 650 -243z m2237 87 l0 -159 -41 -12
c-57 -17 -122 -85 -143 -149 -15 -44 -17 -90 -14 -354 l3 -303 28 -48 c31 -53
92 -102 138 -112 l29 -7 0 -237 0 -237 -637 -239 c-351 -131 -644 -240 -650
-243 -10 -3 -13 178 -13 885 l0 889 643 241 c353 133 645 242 650 242 4 1 7
-70 7 -157z m-3000 -653 l0 -202 -83 5 c-65 3 -92 9 -121 27 -109 68 -126 221
-36 311 46 46 81 58 173 59 l67 1 0 -201z m3304 172 c21 -13 49 -42 64 -64 23
-34 27 -52 27 -107 0 -55 -4 -73 -27 -107 -42 -64 -87 -86 -185 -91 l-83 -5 0
203 0 203 83 -5 c65 -3 92 -9 121 -27z"/>
</g>
</svg>
