<?xml version="1.0" standalone="no"?>
<!DOCTYPE svg PUBLIC "-//W3C//DTD SVG 20010904//EN"
 "http://www.w3.org/TR/2001/REC-SVG-20010904/DTD/svg10.dtd">
<svg version="1.0" xmlns="http://www.w3.org/2000/svg"
 width="512.000000pt" height="512.000000pt" viewBox="0 0 512.000000 512.000000"
 preserveAspectRatio="xMidYMid meet">

<g transform="translate(0.000000,512.000000) scale(0.100000,-0.100000)"
fill="#000000" stroke="none">
<path d="M854 4266 c-40 -40 -44 -75 -14 -123 22 -36 37 -42 125 -45 l60 -3 5
-383 5 -384 28 -24 c49 -42 124 -27 152 31 13 28 15 89 15 399 l0 366 1433 -2
1432 -3 3 -1022 2 -1023 -467 0 c-528 0 -524 1 -551 -72 -13 -33 -12 -41 4
-75 14 -27 29 -41 54 -50 26 -9 199 -12 641 -12 334 -1 620 2 638 5 48 10 81
49 81 96 0 22 -5 48 -11 60 -15 28 -70 48 -134 48 l-55 0 0 1025 0 1025 71 0
c65 0 73 2 100 29 38 39 40 97 5 138 l-24 28 -1782 3 -1782 2 -34 -34z"/>
<path d="M2327 3680 c-40 -12 -55 -27 -66 -67 -14 -51 8 -99 53 -118 52 -22
1259 -22 1311 -1 40 17 55 42 55 94 0 47 -33 86 -81 96 -48 9 -1240 6 -1272
-4z"/>
<path d="M1913 3269 c-57 -16 -84 -92 -53 -149 27 -51 18 -50 905 -50 882 0
878 0 904 48 6 12 11 38 11 60 0 47 -33 86 -81 96 -51 10 -1650 5 -1686 -5z"/>
<path d="M1203 3055 c-136 -37 -279 -150 -335 -265 -120 -244 -48 -528 169
-673 97 -64 177 -89 288 -90 155 -1 272 48 380 158 99 100 145 216 145 366 0
153 -57 280 -173 386 -125 114 -314 161 -474 118z m260 -218 c67 -30 125 -87
158 -153 20 -41 24 -64 24 -139 0 -78 -4 -97 -27 -140 -35 -67 -90 -118 -162
-151 -52 -23 -67 -26 -140 -22 -127 7 -219 67 -273 176 -38 76 -40 191 -5 267
75 165 263 236 425 162z"/>
<path d="M3323 2845 c-12 -8 -308 -357 -658 -776 l-637 -761 -32 79 c-67 167
-189 299 -348 377 -208 103 -422 103 -638 -1 -177 -85 -320 -262 -370 -459
-16 -62 -20 -111 -20 -250 0 -165 1 -174 23 -199 14 -17 36 -28 63 -32 36 -5
46 -1 75 25 l34 30 6 184 c5 152 9 192 26 235 119 300 449 428 727 280 109
-57 208 -177 249 -301 5 -17 12 -110 16 -206 7 -192 15 -220 69 -241 76 -30
142 32 142 132 l0 58 710 848 c509 609 712 857 716 879 15 82 -85 146 -153 99z"/>
</g>
</svg>
